<svg xmlns="http://www.w3.org/2000/svg" width="512" height="512" viewBox="0 0 512 512">
  <rect width="512" height="512" rx="128" fill="#16a34a"/>
  <path d="M256 80c-97.2 0-176 78.8-176 176s78.8 176 176 176 176-78.8 176-176-78.8-176-176-176zm0 320c-79.5 0-144-64.5-144-144s64.5-144 144-144 144 64.5 144 144-64.5 144-144 144z" fill="#ffffff" opacity="0.3"/>
  <g fill="#ffffff">
    <!-- Leaf icon -->
    <path d="M350 162c-28.3-28.3-74.2-28.3-102.5 0l-47.5 47.5v50l35.4-35.4c14.1-14.1 36.9-14.1 51 0 14.1 14.1 14.1 36.9 0 51l-35.4 35.4h50l47.5-47.5c28.3-28.3 28.3-74.2 0-102.5z"/>
    <path d="M247.5 259.5l-47.5 47.5c-28.3 28.3-28.3 74.2 0 102.5s74.2 28.3 102.5 0l47.5-47.5h-50l-35.4 35.4c-14.1 14.1-36.9 14.1-51 0-14.1-14.1-14.1-36.9 0-51l35.4-35.4v-50z"/>
    <!-- Field lines -->
    <rect x="128" y="380" width="256" height="12" rx="6" opacity="0.7"/>
    <rect x="148" y="400" width="216" height="12" rx="6" opacity="0.5"/>
    <rect x="168" y="420" width="176" height="12" rx="6" opacity="0.3"/>
  </g>
</svg>
